<?xml version="1.0" standalone="yes"?>

<svg version="1.1" viewBox="0.0 0.0 960.0 720.0" fill="none" stroke="none" stroke-linecap="square" stroke-miterlimit="10" xmlns="http://www.w3.org/2000/svg" xmlns:xlink="http://www.w3.org/1999/xlink"><clipPath id="p.0"><path d="m0 0l960.0 0l0 720.0l-960.0 0l0 -720.0z" clip-rule="nonzero"></path></clipPath><g clip-path="url(#p.0)"><path fill="#000000" fill-opacity="0.0" d="m0 0l960.0 0l0 720.0l-960.0 0z" fill-rule="evenodd"></path><path fill="#cfe2f3" d="m316.6168 215.78741l0 0c0 -29.031906 23.535034 -52.566925 52.566925 -52.566925l0 0c13.94162 0 27.312225 5.5382843 37.17044 15.3965c9.858215 9.8582 15.396515 23.228806 15.396515 37.170425l0 0c0 29.031921 -23.535034 52.566925 -52.566956 52.566925l0 0c-29.03189 0 -52.566925 -23.535004 -52.566925 -52.566925z" fill-rule="evenodd"></path><path stroke="#000000" stroke-width="1.0" stroke-linejoin="round" stroke-linecap="butt" d="m316.6168 215.78741l0 0c0 -29.031906 23.535034 -52.566925 52.566925 -52.566925l0 0c13.94162 0 27.312225 5.5382843 37.17044 15.3965c9.858215 9.8582 15.396515 23.228806 15.396515 37.170425l0 0c0 29.031921 -23.535034 52.566925 -52.566956 52.566925l0 0c-29.03189 0 -52.566925 -23.535004 -52.566925 -52.566925z" fill-rule="evenodd"></path><path fill="#000000" d="m352.77054 222.70741l0 -13.59375l5.109375 0q1.546875 0 2.484375 0.40625q0.953125 0.40625 1.484375 1.265625q0.53125 0.859375 0.53125 1.796875q0 0.875 -0.46875 1.65625q-0.46875 0.765625 -1.4375 1.234375q1.234375 0.359375 1.890625 1.234375q0.671875 0.875 0.671875 2.0625q0 0.953125 -0.40625 1.78125q-0.390625 0.8125 -0.984375 1.265625q-0.59375 0.4375 -1.5 0.671875q-0.890625 0.21875 -2.1875 0.21875l-5.1875 0zm1.796875 -7.890625l2.9375 0q1.203125 0 1.71875 -0.15625q0.6875 -0.203125 1.03125 -0.671875q0.359375 -0.46875 0.359375 -1.1875q0 -0.671875 -0.328125 -1.1875q-0.328125 -0.515625 -0.9375 -0.703125q-0.59375 -0.203125 -2.0625 -0.203125l-2.71875 0l0 4.109375zm0 6.28125l3.390625 0q0.875 0 1.21875 -0.0625q0.625 -0.109375 1.046875 -0.359375q0.421875 -0.265625 0.6875 -0.765625q0.265625 -0.5 0.265625 -1.140625q0 -0.765625 -0.390625 -1.328125q-0.390625 -0.5625 -1.078125 -0.78125q-0.6875 -0.234375 -1.984375 -0.234375l-3.15625 0l0 4.671875zm18.818573 0l0 1.609375l-8.984375 0q-0.015625 -0.609375 0.1875 -1.15625q0.34375 -0.921875 1.09375 -1.8125q0.765625 -0.890625 2.1875 -2.0625q2.21875 -1.8125 3.0 -2.875q0.78125 -1.0625 0.78125 -2.015625q0 -0.984375 -0.71875 -1.671875q-0.703125 -0.6875 -1.84375 -0.6875q-1.203125 0 -1.9375 0.734375q-0.71875 0.71875 -0.71875 2.0l-1.71875 -0.171875q0.171875 -1.921875 1.328125 -2.921875q1.15625 -1.015625 3.09375 -1.015625q1.953125 0 3.09375 1.09375q1.140625 1.078125 1.140625 2.6875q0 0.8125 -0.34375 1.609375q-0.328125 0.78125 -1.109375 1.65625q-0.765625 0.859375 -2.5625 2.390625q-1.5 1.265625 -1.9375 1.71875q-0.421875 0.4375 -0.703125 0.890625l6.671875 0zm8.516327 1.609375l0 -1.453125q-1.140625 1.671875 -3.125 1.671875q-0.859375 0 -1.625 -0.328125q-0.75 -0.34375 -1.125 -0.84375q-0.359375 -0.5 -0.515625 -1.234375q-0.09375 -0.5 -0.09375 -1.5625l0 -6.109375l1.671875 0l0 5.46875q0 1.3125 0.09375 1.765625q0.15625 0.65625 0.671875 1.03125q0.515625 0.375 1.265625 0.375q0.75 0 1.40625 -0.375q0.65625 -0.390625 0.921875 -1.046875q0.28125 -0.671875 0.28125 -1.9375l0 -5.28125l1.671875 0l0 9.859375l-1.5 0z" fill-rule="nonzero"></path><path fill="#000000" fill-opacity="0.0" d="m421.75067 215.78741l97.13385 0" fill-rule="evenodd"></path><path stroke="#000000" stroke-width="1.0" stroke-linejoin="round" stroke-linecap="butt" d="m421.75067 215.78741l91.13385 0" fill-rule="evenodd"></path><path fill="#000000" stroke="#000000" stroke-width="1.0" stroke-linecap="butt" d="m512.8845 217.43915l4.538086 -1.6517334l-4.538086 -1.6517181z" fill-rule="evenodd"></path><path fill="#000000" fill-opacity="0.0" d="m91.78215 172.78871l554.80316 0l0 28.472443l-554.80316 0z" fill-rule="evenodd"></path><path fill="#000000" d="m107.09465 184.34933l1.265625 0.65625l-4.53125 7.875l4.53125 7.875l-1.265625 0.65625l-4.90625 -8.53125l4.90625 -8.53125z" fill-rule="nonzero"></path><path fill="#000000" d="m119.902954 203.70871q-1.375 -1.75 -2.328125 -4.078125q-0.953125 -2.34375 -0.953125 -4.84375q0 -2.21875 0.703125 -4.234375q0.84375 -2.34375 2.578125 -4.671875l1.203125 0q-1.125 1.921875 -1.484375 2.75q-0.5625 1.28125 -0.890625 2.671875q-0.40625 1.734375 -0.40625 3.484375q0 4.46875 2.78125 8.921875l-1.203125 0zm4.118927 0l-1.1875 0q2.765625 -4.453125 2.765625 -8.921875q0 -1.734375 -0.390625 -3.453125q-0.328125 -1.390625 -0.890625 -2.671875q-0.359375 -0.84375 -1.484375 -2.78125l1.1875 0q1.75 2.328125 2.578125 4.671875q0.71875 2.015625 0.71875 4.234375q0 2.5 -0.96875 4.84375q-0.953125 2.328125 -2.328125 4.078125zm5.556427 -4.0l0 -1.90625l1.90625 0l0 1.90625q0 1.046875 -0.375 1.6875q-0.375 0.65625 -1.171875 1.0l-0.46875 -0.71875q0.53125 -0.21875 0.78125 -0.671875q0.25 -0.453125 0.28125 -1.296875l-0.953125 0zm13.116608 4.0q-1.375 -1.75 -2.328125 -4.078125q-0.953125 -2.34375 -0.953125 -4.84375q0 -2.21875 0.703125 -4.234375q0.84375 -2.34375 2.578125 -4.671875l1.203125 0q-1.125 1.921875 -1.484375 2.75q-0.5625 1.28125 -0.890625 2.671875q-0.40625 1.734375 -0.40625 3.484375q0 4.46875 2.78125 8.921875l-1.203125 0zm4.118927 0l-1.1875 0q2.765625 -4.453125 2.765625 -8.921875q0 -1.734375 -0.390625 -3.453125q-0.328125 -1.390625 -0.890625 -2.671875q-0.359375 -0.84375 -1.484375 -2.78125l1.1875 0q1.75 2.328125 2.578125 4.671875q0.71875 2.015625 0.71875 4.234375q0 2.5 -0.96875 4.84375q-0.953125 2.328125 -2.328125 4.078125z" fill-rule="nonzero"></path><path fill="#000000" d="m158.61607 201.41183l-1.265625 -0.65625l4.53125 -7.875l-4.53125 -7.875l1.265625 -0.65625l4.890625 8.53125l-4.890625 8.53125z" fill-rule="nonzero"></path><path fill="#000000" fill-opacity="0.0" d="m76.92388 215.7874l470.70868 0l0 35.338593l-470.70868 0z" fill-rule="evenodd"></path><path fill="#000000" d="m118.1529 227.34802l1.265625 0.65625l-4.53125 7.875l4.53125 7.875l-1.265625 0.65625l-4.90625 -8.53125l4.90625 -8.53125z" fill-rule="nonzero"></path><path fill="#000000" d="m126.262276 242.7074l0 -12.0l-4.46875 0l0 -1.59375l10.765633 0l0 1.59375l-4.5 0l0 12.0l-1.7968826 0zm8.161613 0l0 -1.90625l1.90625 0l0 1.90625q0 1.046875 -0.375 1.6875q-0.375 0.65625 -1.171875 1.0l-0.46875 -0.71875q0.53125 -0.21875 0.78125 -0.671875q0.25 -0.453125 0.28125 -1.296875l-0.953125 0zm10.241608 0l0 -13.59375l9.171875 0l0 1.59375l-7.375 0l0 4.21875l6.375 0l0 1.609375l-6.375 0l0 6.171875l-1.796875 0z" fill-rule="nonzero"></path><path fill="#000000" d="m157.24898 244.41052l-1.265625 -0.65625l4.53125 -7.875l-4.53125 -7.875l1.265625 -0.65625l4.890625 8.53125l-4.890625 8.53125z" fill-rule="nonzero"></path><path fill="#000000" fill-opacity="0.0" d="m518.8845 193.3247l393.7008 0l0 35.338577l-393.7008 0z" fill-rule="evenodd"></path><path fill="#000000" d="m534.197 204.88533l1.265625 0.65625l-4.53125 7.875l4.53125 7.875l-1.265625 0.65625l-4.90625 -8.53125l4.90625 -8.53125z" fill-rule="nonzero"></path><path fill="#000000" d="m538.947 220.2447l0 -13.59375l9.171875 0l0 1.59375l-7.375 0l0 4.21875l6.375 0l0 1.609375l-6.375 0l0 6.171875l-1.796875 0zm11.520996 0l0 -1.90625l1.90625 0l0 1.90625q0 1.046875 -0.375 1.6875q-0.375 0.65625 -1.171875 1.0l-0.46875 -0.71875q0.53125 -0.21875 0.78125 -0.671875q0.25 -0.453125 0.28125 -1.296875l-0.953125 0zm8.417664 0l0 -12.0l-4.46875 0l0 -1.59375l10.765625 0l0 1.59375l-4.5 0l0 12.0l-1.796875 0zm8.161621 0l0 -1.90625l1.90625 0l0 1.90625q0 1.046875 -0.375 1.6875q-0.375 0.65625 -1.171875 1.0l-0.46875 -0.71875q0.53125 -0.21875 0.78125 -0.671875q0.25 -0.453125 0.28125 -1.296875l-0.953125 0zm18.78424 0l0 -12.0l-4.46875 0l0 -1.59375l10.765625 0l0 1.59375l-4.5 0l0 12.0l-1.796875 0z" fill-rule="nonzero"></path><path fill="#000000" d="m595.05566 221.94783l-1.265625 -0.65625l4.53125 -7.875l-4.53125 -7.875l1.265625 -0.65625l4.890625 8.53125l-4.890625 8.53125z" fill-rule="nonzero"></path><path fill="#000000" fill-opacity="0.0" d="m179.87665 193.32547c33.842514 0 50.76378 0.14961243 67.68503 0.29922485c16.921265 0.14959717 33.84253 0.2992096 67.68503 0.2992096" fill-rule="evenodd"></path><path stroke="#000000" stroke-width="1.0" stroke-linejoin="round" stroke-linecap="butt" stroke-dasharray="4.0,3.0" d="m179.87665 193.32549c33.842514 0 50.76378 0.14959717 67.68503 0.2992096c8.460632 0.074798584 16.921265 0.14959717 27.49704 0.20570374c5.287903 0.028060913 11.104584 0.05142212 17.714447 0.0677948c3.3049316 0.008178711 6.8081665 0.01461792 10.542755 0.018981934l5.930786 0.0033416748" fill-rule="evenodd"></path><path fill="#000000" stroke="#000000" stroke-width="1.0" stroke-linecap="butt" d="m309.2458 195.57225l4.539032 -1.6491699l-4.5371704 -1.6542816z" fill-rule="evenodd"></path><path fill="#000000" fill-opacity="0.0" d="m178.50656 237.9344c34.527557 0 51.791336 -0.33859253 69.055115 -0.6771698c17.263794 -0.33857727 34.527557 -0.6771698 69.055115 -0.6771698" fill-rule="evenodd"></path><path stroke="#000000" stroke-width="1.0" stroke-linejoin="round" stroke-linecap="butt" d="m178.50656 237.9344c34.527557 0 51.791336 -0.33857727 69.055115 -0.6771698c8.631897 -0.169281 17.263794 -0.33857727 28.05365 -0.46554565c5.394928 -0.06347656 11.329346 -0.11639404 18.073029 -0.15342712c3.3717957 -0.018508911 6.9459534 -0.033065796 10.756134 -0.04296875c1.9050903 -0.0049591064 3.8691711 -0.008773804 5.8964844 -0.01133728l0.27581787 -1.6784668E-4" fill-rule="evenodd"></path><path fill="#000000" stroke="#000000" stroke-width="1.0" stroke-linecap="butt" d="m310.61783 238.23552l4.537079 -1.654541l-4.5391235 -1.6489258z" fill-rule="evenodd"></path></g></svg>

